<?xml version="1.0" encoding="UTF-8" standalone="no"?>
<svg width="317px" height="59px" viewBox="0 0 317 59" version="1.1" xmlns="http://www.w3.org/2000/svg" xmlns:xlink="http://www.w3.org/1999/xlink" xmlns:sketch="http://www.bohemiancoding.com/sketch/ns">
    <!-- Generator: Sketch 3.3.1 (12005) - http://www.bohemiancoding.com/sketch -->
    <title>Geo_Logo_302</title>
    <desc>Created with Sketch.</desc>
    <defs>
        <path id="path-1" d="M0,0.424 L316.871,0.424 L316.871,58.94 L0,58.94"></path>
    </defs>
    <g id="Page-1" stroke="none" stroke-width="1" fill="none" fill-rule="evenodd" sketch:type="MSPage">
        <g id="Geo_Logo_302" sketch:type="MSLayerGroup">
            <g id="Group-6">
                <mask id="mask-2" sketch:name="Clip 2" fill="white">
                    <use xlink:href="#path-1"></use>
                </mask>
                <g id="Clip-2"></g>
                <path d="M258.283,46.086 C258.261,46.019 258.251,45.946 258.245,45.883 C258.232,45.765 258.23,45.603 258.237,45.412 C258.25,45.064 258.291,44.611 258.34,44.162 C258.437,43.277 258.568,42.406 258.568,42.406 C258.568,42.406 259.36,37.191 262.386,30.23 C265.407,23.28 270.659,14.576 279.584,7.583 C297.511,-6.464 313.449,4.49 313.475,4.507 C316.462,6.282 317.314,7.553 316.669,8.499 C316.394,8.903 315.892,9.111 315.535,9.222 C315.153,9.339 314.826,9.374 314.826,9.374 L314.698,9.364 C294.666,4.061 280.828,13.249 271.932,23.794 C267.482,29.069 264.278,34.677 262.17,38.961 C261.115,41.103 260.336,42.911 259.811,44.182 C259.548,44.818 259.35,45.319 259.212,45.658 L259.048,46.056 C258.882,46.433 258.536,46.372 258.5,46.354 C258.347,46.278 258.296,46.129 258.283,46.086" id="Fill-1" fill="#FFFFFF" sketch:type="MSShapeGroup" mask="url(#mask-2)"></path>
                <path d="M243.532,54.228 C247.525,53.824 252.732,53.011 258.348,51.304 C269.578,47.891 282.415,40.913 290.465,26.524 C290.473,26.511 290.587,26.396 290.6,26.389 C290.6,26.389 290.897,26.221 291.277,26.087 C291.625,25.965 292.166,25.825 292.604,26.004 C293.145,26.225 293.316,26.801 293.175,27.596 C293.033,28.396 292.561,29.578 291.597,31.312 C287.902,37.957 281.605,45.954 264.766,53.136 C267.168,52.715 270.951,51.874 275.363,50.249 C282.987,47.443 292.476,42.3 299.953,32.982 C299.953,32.982 301.76,30.969 303.798,27.423 C305.842,23.864 308.121,18.762 309.062,12.58 C309.064,12.565 309.13,12.419 309.14,12.407 C309.519,11.954 312.178,9.695 312.308,18.538 C312.307,18.562 312.196,48.634 278.633,57.282 C278.633,57.282 272.303,58.35 263.556,58.802 C254.82,59.252 243.631,59.093 233.881,56.633 L233.723,56.545 C233.622,56.428 233.578,56.367 233.54,56.29 C233.464,56.141 233.391,55.892 233.511,55.619 C233.731,55.124 234.469,54.815 235.966,54.688 C236.732,54.623 239.523,54.632 243.532,54.228" id="Fill-3" fill="#FFFFFF" sketch:type="MSShapeGroup" mask="url(#mask-2)"></path>
                <path d="M77.139,29.787 L77.139,39.928 L90.305,39.928 L90.305,44.023 L72.369,44.023 L72.369,12.831 L89.611,12.831 L89.611,16.925 L77.139,16.925 L77.139,25.714 L88.911,25.714 L88.911,29.787 L77.139,29.787" id="Fill-4" fill="#FFFFFF" sketch:type="MSShapeGroup" mask="url(#mask-2)"></path>
                <path d="M25.526,42.691 L25.306,42.774 C23.525,43.445 20.006,44.458 15.875,44.458 C11.224,44.458 7.342,43.281 4.315,40.361 C1.626,37.773 -0.007,33.655 0,28.869 C0.014,19.649 6.381,12.89 16.712,12.89 C20.254,12.89 23.079,13.666 24.432,14.311 L24.697,14.437 L23.521,18.278 L23.168,18.117 C21.601,17.403 19.628,16.852 16.62,16.852 C9.456,16.852 4.796,21.278 4.796,28.666 C4.796,36.164 9.257,40.547 16.145,40.547 C18.507,40.547 20.119,40.236 21.003,39.854 L21.003,31.386 L14.874,31.386 L14.874,27.578 L25.526,27.578 L25.526,42.691" id="Fill-5" fill="#FFFFFF" sketch:type="MSShapeGroup" mask="url(#mask-2)"></path>
            </g>
            <path d="M57.271,25.577 C53.543,25.577 51.496,29.049 51.498,33.279 C51.493,37.392 53.709,40.765 57.207,40.765 C60.75,40.765 62.987,37.519 62.987,33.083 C62.987,29.179 60.983,25.577 57.271,25.577 L57.271,25.577 Z M57.401,21.944 C63.446,21.944 67.29,26.62 67.29,32.968 C67.29,40.304 62.751,44.398 57.155,44.398 C51.28,44.398 47.255,39.811 47.255,33.349 C47.255,26.583 51.496,21.944 57.401,21.944 L57.401,21.944 Z" id="Fill-7" fill="#FFFFFF" sketch:type="MSShapeGroup"></path>
            <path d="M35.476,34.566 L35.476,40.394 L44.273,40.394 L44.273,44.078 L31.34,44.078 L31.34,22.287 L43.81,22.287 L43.81,25.972 L35.476,25.972 L35.476,30.896 L43.342,30.896 L43.342,34.566 L35.476,34.566" id="Fill-8" fill="#FFFFFF" sketch:type="MSShapeGroup"></path>
            <path d="M99.965,34.655 L99.965,44.081 L95.996,44.081 L95.996,22.29 L100.041,22.29 L106.763,32.896 C107.537,34.138 108.229,35.315 108.851,36.453 C108.794,34.924 108.778,33.343 108.778,31.545 L108.778,22.29 L112.747,22.29 L112.747,44.081 L108.92,44.081 L102.248,33.441 C101.438,32.124 100.639,30.791 99.911,29.474 C99.953,31.028 99.965,32.686 99.965,34.655" id="Fill-9" fill="#FFFFFF" sketch:type="MSShapeGroup"></path>
            <path d="M134.857,43.122 C133.623,43.587 131.202,44.284 128.354,44.284 C125.147,44.284 122.399,43.47 120.246,41.393 C118.322,39.541 117.19,36.636 117.195,33.316 C117.205,26.843 121.711,22.087 128.915,22.087 C131.354,22.087 133.325,22.62 134.312,23.09 L134.897,23.369 L133.802,26.944 L133.024,26.589 C132.044,26.143 130.797,25.788 128.853,25.788 C124.335,25.788 121.454,28.527 121.454,33.181 C121.454,37.929 124.223,40.617 128.535,40.617 C129.808,40.617 130.709,40.479 131.267,40.31 L131.267,35.527 L127.16,35.527 L127.16,31.928 L135.343,31.928 L135.343,42.939 L134.857,43.122" id="Fill-10" fill="#FFFFFF" sketch:type="MSShapeGroup"></path>
            <path d="M141.429,22.29 L145.565,22.29 L145.565,44.081 L141.429,44.081 L141.429,22.29 Z" id="Fill-11" fill="#FFFFFF" sketch:type="MSShapeGroup"></path>
            <path d="M156.072,34.655 L156.072,44.081 L152.103,44.081 L152.103,22.29 L156.148,22.29 L162.87,32.896 C163.643,34.138 164.336,35.315 164.958,36.453 C164.9,34.923 164.885,33.343 164.885,31.545 L164.885,22.29 L168.854,22.29 L168.854,44.081 L165.027,44.081 L158.355,33.441 C157.545,32.124 156.745,30.791 156.018,29.474 C156.059,31.028 156.072,32.686 156.072,34.655" id="Fill-12" fill="#FFFFFF" sketch:type="MSShapeGroup"></path>
            <path d="M179.245,34.569 L179.245,40.398 L188.043,40.398 L188.043,44.081 L175.109,44.081 L175.109,22.29 L187.578,22.29 L187.578,25.975 L179.245,25.975 L179.245,30.899 L187.111,30.899 L187.111,34.569 L179.245,34.569" id="Fill-13" fill="#FFFFFF" sketch:type="MSShapeGroup"></path>
            <path d="M197.378,34.569 L197.378,40.398 L206.174,40.398 L206.174,44.081 L193.242,44.081 L193.242,22.29 L205.711,22.29 L205.711,25.975 L197.378,25.975 L197.378,30.899 L205.244,30.899 L205.244,34.569 L197.378,34.569" id="Fill-14" fill="#FFFFFF" sketch:type="MSShapeGroup"></path>
            <path d="M217.421,31.804 C219.932,31.804 221.252,30.503 221.252,28.703 C221.252,26.665 219.899,25.673 217.336,25.669 C216.554,25.669 215.938,25.715 215.495,25.774 L215.495,31.804 L217.421,31.804 L217.421,31.804 Z M224.517,37.59 C225.199,40.486 225.657,42.298 226.013,42.983 L226.584,44.081 L222.182,44.081 L221.969,43.69 C221.586,42.986 221.107,41.124 220.562,38.632 C220.013,36.095 219.138,35.353 217.199,35.289 L215.495,35.289 L215.495,44.081 L211.375,44.081 L211.375,22.704 L211.977,22.583 C213.347,22.309 215.311,22.132 217.165,22.132 C220.025,22.132 222.079,22.671 223.545,23.993 C224.73,25.044 225.386,26.641 225.386,28.41 C225.386,30.862 224.109,32.652 222.378,33.68 C223.47,34.567 224.135,35.96 224.517,37.59 L224.517,37.59 Z" id="Fill-15" fill="#FFFFFF" sketch:type="MSShapeGroup"></path>
            <path d="M231.729,39.501 C232.789,40.164 234.362,40.7 236.012,40.7 C238.411,40.7 239.517,39.516 239.517,37.997 C239.517,36.6 238.82,35.679 236.173,34.689 C232.775,33.483 230.315,31.563 230.315,28.228 C230.315,24.546 233.394,21.974 237.642,21.974 C239.811,21.974 241.473,22.477 242.489,23.053 L243.029,23.361 L241.799,26.972 L241.003,26.499 C240.453,26.173 239.227,25.641 237.556,25.641 C235.153,25.641 234.466,26.986 234.466,27.925 C234.466,29.27 235.213,30.035 238.023,31.12 C241.582,32.516 243.676,34.362 243.676,37.796 C243.676,41.386 240.982,44.398 235.826,44.398 C233.76,44.398 231.461,43.782 230.222,42.944 L229.757,42.632 L230.907,38.986 L231.729,39.501" id="Fill-16" fill="#FFFFFF" sketch:type="MSShapeGroup"></path>
        </g>
    </g>
</svg>